<svg width="440" height="242" viewBox="0 0 440 242" fill="none" xmlns="http://www.w3.org/2000/svg">
<g clip-path="url(#clip0_2_7)">
<path d="M335.835 47.4927H315.996V88.8361C315.996 102.312 329.551 113.825 346.31 113.825C363.069 113.825 377.733 102.181 377.733 88.8361V47.4927H357.893V84.7803C357.893 90.9294 352.964 95.9011 346.926 95.9011C340.764 95.9011 335.835 90.9294 335.835 84.6494V47.4927ZM21.1129 24.7276V110.555H0.53389V7.06503H37.6253C53.7681 7.06503 66.9534 20.9334 66.9534 37.811C66.9534 52.2027 57.4649 64.2394 44.6493 67.3794L73.238 110.555H48.7158L28.1368 76.6686V51.941H32.9427C40.5828 51.941 46.7441 45.9226 46.7441 38.4651C46.7441 31.0076 40.9524 24.7276 33.3124 24.7276H21.1129ZM210.513 110.555V2.09335H191.043V53.2493C185.868 47.8851 179.337 44.876 171.82 44.876C155.8 44.876 142.738 59.9219 142.738 78.6311C142.738 97.2095 155.8 112.386 171.82 112.386C179.46 112.386 186.607 109.246 191.043 103.489V110.555H210.513ZM177.365 94.7236C169.479 94.7236 163.071 87.2661 163.071 78.1077C163.071 68.9494 169.479 61.4919 177.365 61.4919C185.252 61.4919 191.659 68.9494 191.659 78.1077C191.536 87.2661 185.128 94.7236 177.365 94.7236ZM292.336 54.296C297.635 49.0627 300.962 41.9976 300.962 34.2784C300.962 27.2134 298.374 20.8026 293.938 15.7001C289.255 10.3359 281.122 7.06503 270.032 7.06503H236.884V110.555H279.767C296.156 110.293 309.465 97.0786 309.465 80.8552C309.342 69.0802 305.398 60.7069 292.336 54.296ZM275.824 92.6303H257.216V25.6434H270.278C275.947 25.6434 280.753 30.2226 280.753 36.3718C280.753 42.521 275.947 47.4927 270.278 47.4927H263.378V66.2019H276.07C282.971 66.2019 288.146 72.2202 288.146 79.5469C287.9 86.8736 283.341 92.2378 275.824 92.6303Z" fill="#E21B4D"/>
<path d="M90.4898 70.9119C90.4898 63.9777 95.7886 58.3518 102.32 58.3518C108.851 58.3518 114.149 63.9777 114.149 70.9119H90.4898ZM133.373 82.6869C133.496 81.2477 133.619 79.8086 133.619 78.3694C133.866 55.9968 120.064 43.8293 102.32 43.8293C84.5749 43.8293 70.1573 59.2677 70.1573 78.3694C70.1573 97.4711 84.5749 112.909 102.32 112.909C115.875 112.909 126.472 106.368 131.894 96.1628L116.121 88.4436C114.149 93.0228 109.467 96.2936 103.922 96.2936C96.6512 96.2936 90.613 90.4061 90.613 82.6869H133.373ZM386.851 2.09335H406.321V110.554H386.851V2.09335ZM420 2.09335H439.47V110.554H420V2.09335Z" fill="#E21B4D"/>
<path d="M175.27 182.251C175.27 154.253 196.589 131.619 222.959 131.619C249.33 131.619 270.648 154.253 270.648 182.251C270.648 210.25 249.33 232.884 222.959 232.884C196.589 232.884 175.27 210.119 175.27 182.251Z" fill="#FFD300"/>
<path fill-rule="evenodd" clip-rule="evenodd" d="M184.635 152.16C185.375 152.552 186.114 152.945 186.977 153.468C190.55 156.085 192.892 158.309 198.314 163.15C199.916 164.85 201.764 167.598 203.12 169.299C206.077 173.224 208.172 175.971 208.542 179.242C209.404 185.784 210.267 189.447 212.608 196.12C212.855 196.774 213.84 197.69 214.456 198.475C215.935 200.437 216.551 203.577 219.262 205.278C220.741 206.194 220.988 206.325 221.48 206.717C222.22 207.371 220.988 209.726 217.167 209.203C219.139 210.25 218.893 212.605 216.058 212.736C210.513 212.997 207.063 209.596 206.323 208.68C205.954 208.287 204.845 209.857 202.873 210.642C200.901 211.689 198.19 210.642 196.096 211.035C194.124 211.427 191.536 212.736 189.441 212.866C185.745 212.997 185.252 210.25 185.252 207.895V206.848C184.882 208.287 183.526 210.773 183.526 210.773C183.034 211.951 182.294 213.39 180.939 213.913L176.995 214.436C173.915 215.876 170.834 216.922 167.63 218.1C165.782 218.492 163.687 218.1 162.331 216.922C161.222 216.006 160.606 214.829 159.99 213.651C159.374 213.39 158.511 213.651 157.772 213.39C157.156 213.259 156.786 212.736 156.416 212.343L153.705 207.502C153.459 206.848 153.459 205.932 153.705 205.278C154.198 204.231 155.307 203.708 156.416 203.708C158.388 203.577 160.606 202.923 162.578 203.708C163.44 202.661 164.796 202.792 166.028 202.531C165.535 201.746 164.796 201.353 164.18 200.699C160.606 201.615 156.663 200.961 153.213 200.306C150.009 199.521 147.298 201.484 144.094 200.961L143.108 203.185C141.629 204.886 141.506 207.764 139.288 208.941C137.686 209.334 136.454 210.511 135.098 211.296C132.634 212.736 129.306 212.081 126.595 211.558C125.486 211.427 124.747 211.558 123.761 211.951C122.899 212.605 121.913 213.651 120.927 214.436C119.325 215.091 117.97 216.53 116.244 216.661C115.259 216.661 114.273 216.006 113.287 216.268C112.055 217.707 111.438 220.062 109.467 220.716C107.495 221.371 105.031 220.847 103.059 220.324C102.443 220.586 102.073 221.109 101.334 220.978C99.9783 220.586 98.6228 220.193 97.3905 219.408C96.8976 218.885 96.7744 218.231 96.6512 217.707C96.6512 216.791 97.3905 216.006 97.7602 215.221C97.8835 214.306 97.8835 212.997 98.2531 212.081C98.8693 210.642 100.225 209.726 101.58 209.072C101.704 208.026 102.32 207.11 103.182 206.586C104.784 205.671 106.509 203.577 108.604 204.755L110.822 206.717C112.794 205.801 112.301 203.708 113.287 202.007C113.78 200.83 114.396 199.521 115.628 199.521C116.491 199.391 117.477 199.652 118.339 199.521C119.571 199.129 120.927 198.606 121.79 197.559L121.666 196.774C120.434 194.288 120.064 191.279 119.941 188.27C117.723 188.531 115.382 188.924 113.04 188.401C109.59 187.877 106.263 184.999 104.907 181.336C103.429 177.803 104.045 172.831 106.386 169.822C108.235 167.467 110.329 165.374 112.548 163.542C111.808 163.28 110.946 163.411 110.206 163.15C107.002 162.626 103.798 159.617 103.059 156.215C102.566 153.991 103.059 151.898 104.045 150.066C104.415 149.674 104.784 149.281 105.4 149.543C107.002 150.197 107.495 151.113 108.974 151.898L109.837 152.421C113.903 153.86 119.325 153.86 120.927 159.225C121.913 163.411 119.448 166.551 116.614 168.906C114.396 170.607 112.178 172.701 111.069 175.186C110.576 177.018 110.822 178.85 112.301 180.158C113.78 181.728 116.368 181.728 118.216 180.943C121.666 179.373 124.87 177.018 127.951 174.532C130.908 172.177 134.482 171.261 138.302 171.13C140.027 170.738 141.506 169.953 142.861 168.775C145.203 166.42 147.667 164.458 150.625 163.673C151.98 163.411 153.336 163.28 154.691 163.15C155.8 162.626 156.54 161.187 157.402 160.533C161.469 156.739 166.891 156.87 171.204 153.86C173.668 151.898 176.379 150.59 179.583 150.72C181.062 150.851 182.417 151.113 183.65 151.636L184.635 152.16ZM188.702 196.643C185.991 196.774 184.266 197.428 182.417 197.69C182.541 199.521 183.526 201.091 184.882 203.054C185.621 200.045 187.963 198.867 188.702 196.643ZM258.079 197.297C259.311 199.26 260.051 201.222 261.16 203.316C262.269 201.091 263.254 198.998 264.24 197.69C264.117 197.559 260.913 197.951 258.079 197.297ZM260.667 206.979C260.544 207.371 260.297 207.502 259.804 207.502C260.174 209.334 258.942 212.736 255.861 212.866C253.766 212.997 250.316 210.773 248.344 210.642C246.249 210.511 242.429 212.212 240.211 208.68C237.254 212.474 233.803 213.521 230.846 213.39C229.121 213.39 227.272 212.343 229.86 209.988C224.191 211.951 224.191 207.895 225.177 207.11C225.793 206.586 226.533 206.194 228.628 203.97C236.514 195.204 233.557 180.027 242.183 169.953C245.51 166.028 248.221 163.804 254.998 158.701C257.34 157 259.681 154.515 261.899 152.814L262.022 153.075V152.945C263.378 151.898 264.61 150.851 266.089 150.459C269.169 150.066 272.004 151.113 274.345 152.814C275.577 153.73 276.563 154.776 277.549 156.085C278.288 156.87 279.397 156.87 280.383 157.262C283.217 157.785 285.682 158.963 288.023 160.533C289.625 161.58 290.981 163.411 292.952 163.673C295.294 164.065 297.388 164.85 299.483 166.159C301.948 167.86 304.166 169.953 307.123 170.476C313.038 171.13 317.967 174.663 322.65 178.196C325.361 179.896 328.565 181.859 331.892 180.681C332.878 180.289 333.617 179.373 333.864 178.457C334.11 176.102 332.755 174.271 331.399 172.57C328.565 169.037 323.636 166.028 324.252 160.925C325.115 157.131 329.058 154.907 332.139 153.86C333.864 153.206 335.959 153.468 337.437 151.898C338.177 151.375 338.546 149.543 339.779 150.197C340.764 150.851 340.888 152.16 341.011 153.337C341.504 157 340.764 160.664 337.561 162.757C336.082 163.804 334.48 164.196 332.755 164.589C335.342 166.813 337.93 169.56 339.409 172.7C340.272 174.532 340.764 176.102 340.888 178.196C340.764 182.121 338.546 185.522 335.342 187.485C333.494 188.531 331.399 188.924 329.181 188.924C328.319 188.924 327.579 188.662 326.84 188.662C327.209 190.494 327.209 192.98 326.84 195.073C326.717 196.12 326.1 197.297 326.1 198.606C326.593 199.26 327.333 199.26 327.949 199.26C329.551 199.26 331.522 199.129 332.385 200.961C333.124 202.661 333.494 204.624 334.11 206.325C334.357 206.586 334.48 207.241 334.85 207.11C335.959 206.063 337.068 204.624 338.67 205.016C340.148 206.063 341.627 207.241 343.106 208.418C343.475 208.811 343.599 209.334 343.722 209.988C344.954 210.511 346.556 211.427 346.926 212.997C347.172 214.044 347.049 215.091 347.296 216.006C347.665 217.053 348.651 218.361 347.912 219.67L347.419 220.062L342.736 221.632C342.366 221.632 341.997 221.371 341.627 220.978C339.162 220.847 336.205 221.632 334.233 219.801C333.371 219.016 332.755 218.1 332.139 217.053C330.66 217.838 328.565 218.361 327.086 217.315C324.006 214.829 320.925 212.343 316.735 212.474C314.887 212.866 312.669 213.39 310.82 212.605C309.095 211.296 307.123 210.642 305.768 208.68C303.796 206.456 303.796 203.839 303.057 201.091C300.346 201.746 297.388 201.353 294.677 201.222C292.459 201.091 290.365 201.484 288.27 202.007C285.682 202.531 282.848 202.792 280.137 202.661L278.781 203.708C279.397 203.839 280.013 203.839 280.506 204.362L280.999 204.886C283.217 205.147 285.805 204.755 287.9 205.278C288.393 205.409 288.886 205.932 289.132 206.456C289.379 207.11 289.379 207.895 289.009 208.418C287.9 209.988 287.284 211.82 285.805 213.128C285.435 213.651 284.326 212.997 284.203 213.913C283.71 216.268 281.615 218.231 279.52 218.754C278.658 218.885 277.672 218.754 276.933 218.492C274.345 217.576 271.757 216.791 269.169 216.006C268.307 215.745 267.567 214.829 266.828 214.306C265.719 214.306 264.117 214.698 263.378 213.651C263.008 213.39 262.638 212.474 262.515 212.081C261.653 210.904 261.036 208.811 260.667 206.979Z" fill="#FFD300"/>
<path fill-rule="evenodd" clip-rule="evenodd" d="M183.403 168.645C184.143 170.607 184.143 173.224 183.65 175.317C183.526 175.448 183.403 175.448 183.28 175.317C182.91 173.485 182.541 171.654 181.924 169.822C181.555 168.775 180.323 167.86 180.815 166.682C181.062 166.42 181.555 166.42 181.924 166.551C182.541 167.205 182.91 167.86 183.403 168.645ZM203.12 186.961C204.475 188.662 205.461 190.494 204.968 192.718C204.722 193.111 204.845 193.896 204.229 194.026C203.982 194.157 203.736 193.896 203.736 193.634C203.612 192.456 203.612 191.148 202.996 190.232C202.257 189.447 201.394 187.877 200.162 187.877C199.3 188.139 198.683 189.186 198.19 189.84C198.19 189.971 198.067 189.971 197.944 189.84C197.451 188.531 198.437 187.485 198.807 186.438C199.546 185.653 199.423 183.429 201.025 184.083C202.134 184.868 202.38 186.176 203.12 186.961ZM200.532 202.531C200.655 203.316 200.655 204.493 199.916 205.016C199.176 205.278 198.19 205.409 197.328 205.278C197.081 205.147 196.835 205.016 196.958 204.755C197.328 203.577 198.437 202.269 199.669 202.007C199.916 202.007 200.409 202.007 200.532 202.531ZM110.576 154.776C113.533 155.561 116.737 155.561 118.955 158.047C120.188 159.617 120.311 162.365 119.325 163.935C117.6 167.075 114.149 168.645 112.055 171.392C109.96 173.224 109.22 176.102 109.836 178.981C110.576 181.466 112.917 183.167 115.259 183.298C118.955 183.429 121.666 181.466 124.624 179.635C127.581 177.41 130.292 174.532 133.619 173.616C135.837 172.831 138.302 173.224 140.52 172.308C142.861 171.785 144.71 169.691 146.558 167.86C148.653 166.028 151.118 164.981 153.829 165.112C156.293 165.505 157.649 163.15 159.374 161.58C162.208 158.832 165.905 158.57 169.232 157C171.573 156.215 173.422 154.384 175.64 153.206C177.735 152.29 180.569 152.029 182.664 152.945C184.019 153.599 185.498 154.253 186.73 155.3L196.712 164.196C196.835 164.589 197.205 164.85 197.451 164.981C200.285 168.645 203.243 172.177 205.584 176.233C206.323 177.672 206.693 179.111 207.063 180.681C207.556 186.7 209.034 191.933 210.883 197.166C211.376 197.951 212.362 198.606 212.855 199.391C214.456 201.746 215.442 204.755 218.03 206.325L219.509 207.11C219.632 207.241 219.632 207.502 219.509 207.633L219.262 207.895C216.182 208.418 213.84 206.456 212.238 204.101C211.253 202.007 209.897 199.783 207.679 198.867C207.556 198.867 207.433 198.998 207.433 198.998C207.679 199.783 208.418 200.306 208.665 200.961C209.527 202.4 210.267 203.97 210.636 205.54C211.129 207.241 212.855 208.418 214.21 209.334L216.182 210.381C216.428 210.511 216.551 210.904 216.305 211.166L216.058 211.296C212.731 211.427 209.774 210.25 207.433 207.633C206.94 206.979 206.2 206.456 205.338 206.456C203.859 207.895 202.38 209.203 200.409 209.334C198.314 208.941 196.096 208.941 194.247 209.726C192.522 210.381 190.797 211.166 188.948 211.166C188.086 211.166 187.1 210.773 186.73 209.857C186.73 208.68 185.991 207.371 186.607 206.194L187.839 204.231C187.839 203.97 187.716 203.708 187.47 203.708C186.977 203.577 186.114 204.493 185.868 203.577C185.991 201.615 187.839 200.306 189.072 198.998C189.318 197.428 189.934 195.989 191.043 194.681C191.043 194.55 190.92 194.288 190.674 194.288C189.072 194.55 187.47 194.942 185.745 194.942C184.389 195.727 182.664 196.251 181.062 195.727C180.692 195.466 180.815 195.073 180.939 194.811C182.664 192.326 183.28 189.186 182.787 186.176C182.664 186.046 182.664 185.784 182.417 185.784C182.171 185.784 182.171 186.046 182.048 186.176C181.678 189.055 180.815 191.279 179.337 193.765C178.228 194.942 176.502 194.942 175.024 195.335C174.654 195.466 174.284 195.858 174.284 196.251C174.284 197.297 174.901 197.951 175.27 198.867L178.474 205.147C178.597 206.848 177.858 208.549 177.488 210.119C177.612 210.381 177.858 210.25 178.104 210.119C179.213 209.072 179.953 207.633 180.446 206.063C180.569 205.409 180.323 204.624 180.076 204.101L176.749 197.036C176.995 196.643 177.488 196.643 177.858 196.512C178.597 196.512 179.337 196.905 180.076 197.166C180.815 199.26 181.678 201.484 183.034 203.316C183.28 204.493 183.65 206.063 182.91 206.979C182.171 208.549 181.432 209.857 180.446 211.296C179.583 212.212 178.351 212.081 177.119 212.212H176.749C173.791 213.913 170.711 214.96 167.507 216.006C166.151 216.661 164.549 216.137 163.44 215.221C162.331 214.306 161.838 212.997 161.099 211.82C160.236 210.642 158.881 211.689 157.895 211.035C157.033 209.596 156.17 208.156 155.431 206.586C155.431 206.194 155.431 205.801 155.8 205.54C156.909 205.147 158.142 205.147 159.374 205.016C160.483 204.886 161.715 205.147 162.455 205.932C163.933 207.764 164.549 210.25 166.768 211.427C168.493 211.558 169.971 211.035 171.45 210.25C172.313 209.726 173.299 208.941 173.299 207.764C173.175 205.409 171.697 203.577 169.848 202.269C168 201.222 166.028 199.783 164.673 197.951C163.933 196.905 163.81 195.727 163.44 194.681C163.317 194.419 162.824 194.419 162.701 194.55C161.962 195.204 162.578 196.381 162.578 197.166C162.701 197.69 162.947 198.344 162.701 198.736C161.592 199.652 160.113 199.129 158.758 199.26C156.047 199.129 153.459 197.951 150.625 198.213C147.914 198.344 144.217 200.306 142.245 197.428C141.259 194.681 141.506 191.41 141.999 188.662C141.999 188.401 141.752 188.139 141.506 188.139C141.259 188.008 141.013 188.139 140.89 188.401C140.15 191.148 140.027 194.157 139.411 197.036C138.425 199.521 136.7 202.138 134.359 203.446C132.264 204.624 129.799 205.016 127.212 205.278C122.529 205.409 118.216 206.325 115.259 210.642C115.012 211.035 114.642 211.427 114.766 211.951C114.889 212.081 115.258 212.212 115.382 212.081C118.586 208.287 122.652 206.717 127.335 206.979C131.771 206.979 136.207 206.194 139.041 202.138C139.781 201.222 140.274 200.306 140.89 199.26C141.383 199.26 141.752 199.914 142.122 200.176C142.245 201.615 141.136 202.531 140.643 203.708C140.027 205.016 139.411 206.586 138.179 207.371C136.7 207.764 135.468 208.811 134.112 209.596C132.757 210.25 131.032 210.511 129.43 210.119C127.458 209.726 124.747 209.203 122.775 210.119C121.79 210.773 120.927 211.951 119.941 212.605C118.586 213.259 117.353 214.436 115.751 214.306C114.642 214.044 113.287 213.259 112.301 214.306C111.069 215.483 110.822 217.576 109.22 218.361C107.372 219.408 105.4 218.361 103.552 218.231C103.798 216.268 104.045 214.436 105.277 212.997C106.016 212.866 106.633 212.736 107.249 212.212C107.988 211.558 108.481 210.642 108.974 209.726C110.576 208.68 112.424 207.895 113.41 206.063C114.149 204.362 114.149 202.792 115.382 201.222L115.998 200.961L119.325 200.699C120.681 200.045 121.913 199.391 123.145 198.344C123.515 197.951 123.638 197.297 123.515 196.643C122.899 194.942 122.406 193.765 122.036 191.933C121.666 190.101 121.913 188.27 121.666 186.176C121.543 186.046 121.42 185.653 121.173 185.653C118.955 186.176 116.86 186.831 114.396 186.438C111.069 186.046 107.618 183.691 106.386 180.158C105.277 177.149 105.524 172.831 107.618 170.345C109.59 167.729 112.055 165.766 114.519 163.542C114.889 163.28 114.889 162.757 115.012 162.365C115.012 161.841 114.519 161.449 114.149 161.187C112.671 160.795 110.946 161.318 109.467 160.664C106.879 159.748 104.907 157.131 104.538 154.253C104.415 152.945 104.661 151.898 105.277 150.851C107.249 152.683 108.727 154.253 110.576 154.776ZM103.182 213.259V213.651C102.566 215.221 102.196 217.053 101.703 218.885C100.594 218.754 99.6086 218.361 98.746 217.969C98.4996 217.707 98.746 217.446 98.746 217.184C99.8551 216.137 99.4854 214.829 99.7319 213.39C99.8551 212.605 100.594 211.951 101.334 211.558C102.196 211.689 102.689 212.605 103.182 213.259ZM108.604 207.764C107.988 209.072 107.126 210.642 105.77 211.427C105.277 211.558 104.661 211.558 104.168 211.296C103.922 211.035 103.429 210.773 103.429 210.25C103.552 209.726 103.305 209.072 103.798 208.811C104.784 208.156 105.77 207.502 106.756 206.586C107.002 206.456 107.495 206.325 107.618 206.586C108.111 206.979 108.481 207.241 108.604 207.764ZM170.341 207.241C170.464 207.764 171.204 208.418 170.711 208.941C169.725 209.726 168.616 210.25 167.26 210.119C166.275 209.334 166.398 207.895 165.535 206.848C165.289 206.063 164.18 206.063 164.426 205.278L164.796 205.016C166.151 205.016 167.507 205.016 168.862 204.755C170.218 204.624 169.848 206.325 170.341 207.241ZM248.221 185.915C248.96 186.961 249.576 188.008 250.069 189.316C250.192 189.578 250.069 189.84 249.946 190.101C249.823 190.363 249.576 190.625 249.207 190.363C248.344 190.101 248.467 188.662 247.358 188.793C246.619 188.793 246.126 189.447 245.51 189.84C244.401 190.886 242.922 191.933 242.676 193.503C242.429 194.026 242.552 194.942 242.059 195.204C241.813 195.335 241.443 195.073 241.443 194.811C241.32 192.718 241.936 190.756 243.292 189.316C244.647 188.139 245.633 186.438 246.742 184.999C247.481 184.868 247.974 185.391 248.221 185.915ZM248.714 203.316C248.96 203.839 249.453 204.493 249.083 205.147C248.59 205.54 247.728 205.278 247.112 205.278C246.372 204.886 246.126 203.839 246.126 202.923C246.126 202.661 246.126 202.531 246.372 202.269C247.235 202.269 248.098 202.531 248.714 203.316ZM267.198 163.28C267.567 163.804 267.198 164.327 266.951 164.72C265.226 166.42 263.131 168.252 261.899 170.345C261.406 171 261.036 171.785 260.79 172.57C260.79 172.7 260.667 172.7 260.543 172.7C260.174 171.654 260.667 170.476 260.913 169.43C261.776 166.944 263.747 164.589 265.842 162.888C266.089 162.757 266.951 162.626 267.198 163.28ZM274.222 154.907C275.577 155.823 276.07 157.785 277.672 158.178C280.383 158.832 283.094 159.486 285.559 160.795C287.284 161.71 288.886 163.019 290.488 164.458C291.966 165.243 293.815 165.243 295.417 165.766C297.758 166.42 299.607 168.252 301.701 169.691C304.412 171.915 308.232 171.654 311.313 173.093C316.242 174.794 320.186 178.85 324.745 181.205C327.086 182.513 330.66 183.036 333.001 181.597C334.603 180.42 335.589 178.85 335.219 176.625C334.357 171.261 328.811 168.514 326.224 164.065C325.731 163.019 325.361 161.58 325.607 160.402C326.593 157.785 329.181 156.346 331.399 155.43C333.124 154.515 335.342 154.776 336.944 153.73C337.561 153.337 338.053 152.814 338.423 152.421C338.793 152.421 338.793 152.814 338.916 153.075C339.409 156.215 338.916 159.486 336.328 161.318C335.342 162.103 334.11 162.365 333.001 162.626C332.015 163.019 330.044 162.234 330.167 164.065C330.413 164.981 331.153 165.505 331.769 166.159C335.219 169.168 338.423 173.093 338.793 177.803C338.916 181.466 336.575 184.606 333.617 186.176C331.399 187.092 328.688 187.485 326.347 186.831C325.731 186.7 324.745 186.046 324.252 186.961C324.129 188.008 324.745 188.793 324.745 189.709C324.991 191.41 324.991 193.634 324.498 195.335C324.252 196.643 323.02 198.213 324.129 199.521C325.238 201.353 327.456 200.83 329.304 201.091C330.29 201.222 330.66 202.4 330.906 203.185C331.276 204.231 331.276 205.409 331.646 206.194C331.646 208.156 333.741 208.941 334.726 210.25C335.959 211.689 337.068 214.175 339.162 214.044C339.902 215.614 340.272 217.053 340.518 218.885L340.272 219.146C338.546 219.146 336.205 219.67 334.973 218.361C333.494 217.315 333.001 214.436 330.783 215.221C329.797 216.006 328.442 216.268 327.333 215.745C326.224 215.352 325.484 214.306 324.498 213.651C321.541 211.296 317.598 210.119 313.778 211.035C311.56 211.689 309.834 209.988 308.109 208.941C305.768 207.895 305.152 205.278 304.659 203.054L304.289 200.306C304.289 200.045 304.536 199.783 304.782 199.652H305.152C306.507 202.923 309.095 206.586 312.422 207.764C315.503 209.072 318.337 207.371 321.664 208.026C324.745 208.418 327.209 210.511 329.551 212.474C329.797 212.474 329.92 212.343 330.044 212.081V211.82C327.209 208.026 323.266 206.063 318.707 206.456C314.887 207.241 311.19 205.932 308.972 202.531C307.74 200.568 306.877 198.475 306.507 196.251C306.138 193.634 305.645 190.756 304.782 188.401C304.536 188.27 304.289 188.008 304.043 188.139L303.796 188.531C304.166 191.017 304.905 194.026 304.043 196.643C303.427 198.736 301.455 199.521 299.607 199.652C297.758 199.783 296.033 199.391 294.061 199.391C289.625 199.26 285.682 201.091 281.122 200.699C281.492 199.521 282.231 198.344 281.862 197.036C281.739 196.774 281.369 196.774 281.122 196.774C280.26 197.297 280.383 198.475 279.89 199.26C278.904 200.961 277.056 202.531 275.208 202.923C273.852 203.97 272.62 205.409 271.511 206.717C271.141 207.11 271.141 207.895 271.264 208.418C272.127 210.773 274.715 211.035 276.686 211.689C277.672 211.82 278.535 211.427 279.028 210.511C279.89 209.072 280.013 206.717 281.985 206.456H286.298C286.668 206.586 286.914 206.848 287.161 207.241L287.037 207.895C286.052 209.072 285.682 210.773 284.45 211.558C283.71 211.82 282.848 211.558 282.355 212.212C282.108 213.782 281.739 215.483 280.26 216.268C279.151 217.315 277.549 216.791 276.317 216.399C273.975 215.483 271.634 214.96 269.293 214.175C268.307 213.913 267.937 212.605 266.828 212.343C265.842 212.081 264.733 212.866 263.871 211.951C263.378 210.773 263.131 209.988 262.885 208.68C262.515 207.895 262.269 206.979 262.145 206.063C262.022 205.278 262.145 204.755 262.392 204.101L265.596 197.951C265.842 197.559 266.089 197.166 266.458 197.036C267.198 197.166 268.06 197.559 268.8 197.951L268.676 198.344L265.349 203.708C264.61 205.409 265.349 207.371 266.089 208.811C266.212 208.941 266.335 209.203 266.458 209.072C266.335 208.026 266.212 206.979 266.458 205.801C266.705 204.755 267.321 203.839 267.814 202.923L270.402 198.867C270.648 198.213 270.648 197.166 270.155 196.512C269.046 195.335 267.444 194.942 266.458 193.372C264.364 190.363 264.117 186.831 263.871 183.036C263.871 182.775 263.624 182.382 263.254 182.251C263.008 182.121 262.762 182.513 262.638 182.644C262.022 185.13 262.392 188.139 263.008 190.363C263.378 192.064 264.117 193.765 264.856 195.335C264.98 195.596 264.733 195.989 264.487 196.12C262.762 196.251 261.036 196.12 259.434 195.858C257.216 195.466 255.614 193.634 253.766 192.195C253.52 192.064 253.396 192.326 253.273 192.456C253.766 195.073 256.477 196.643 257.34 198.998C257.832 200.961 259.681 202.4 260.051 204.493C260.051 204.755 259.804 205.147 259.558 205.278C258.942 205.409 258.325 205.016 257.709 205.409C257.586 206.586 258.325 207.764 257.832 208.811C257.216 209.857 256.354 211.035 255.245 211.035C253.027 210.25 250.809 209.203 248.59 208.549C246.988 208.418 245.387 208.68 243.908 208.811C242.429 208.549 241.443 207.11 240.334 206.325C239.965 206.194 239.595 206.194 239.348 206.456C236.884 209.072 234.173 211.951 230.476 211.82C230.23 211.82 230.106 211.558 230.106 211.296V211.035C231.708 209.465 233.68 207.895 234.419 205.671C234.912 203.839 236.391 202.531 237.007 200.83C237.13 200.568 236.884 200.437 236.637 200.306L236.268 200.568C234.419 202.531 233.064 204.755 231.708 206.848C230.353 208.287 228.381 209.203 226.286 208.68C226.04 208.549 226.04 208.156 226.163 207.895C233.803 202.923 234.666 194.026 236.761 185.915C238.239 180.551 239.348 175.055 243.292 170.738C249.207 163.804 256.6 159.748 263.131 153.73C264.117 152.814 265.103 151.898 266.335 151.898C269.539 151.636 272.004 152.945 274.222 154.907ZM344.585 212.736C345.201 213.651 344.954 215.091 345.201 216.137C345.324 216.922 346.31 217.576 345.817 218.361L343.106 219.277C342.613 219.277 342.859 218.623 342.613 218.361C342.366 216.661 341.997 215.483 341.504 213.913C341.381 212.997 342.243 212.343 342.859 211.82C343.475 211.558 343.968 212.343 344.585 212.736ZM338.3 206.848C339.286 207.764 340.641 208.418 341.381 209.596C341.504 210.119 341.134 210.642 340.888 211.035C340.518 211.427 340.025 211.689 339.409 211.689C338.793 211.689 338.3 211.296 337.93 210.773C337.314 209.726 336.451 208.811 336.205 207.764C336.575 207.11 337.437 206.063 338.3 206.848ZM278.904 205.801C278.781 207.11 278.411 208.287 277.919 209.465C277.549 210.25 276.44 209.988 275.7 209.857C274.961 209.596 273.729 209.465 273.606 208.287C273.482 207.241 273.975 206.194 274.468 205.409C275.577 205.278 276.933 205.54 278.042 205.278C278.535 205.278 278.904 205.409 278.904 205.801Z" fill="#E21B4D"/>
<path d="M25.1794 287.311H42.3079V283.517H29.1226V270.695H41.815V266.901H29.1226V257.481H42.3079V253.687H25.1794V287.311ZM59.0669 287.311H63.0101V262.191L86.9162 288.75V253.687H82.973V278.545L59.0669 251.986V287.311ZM103.922 287.311H120.927V283.517H107.865V270.695H120.557V266.901H107.865V257.481H120.927V253.687H103.922V287.311ZM146.805 272.657C151.364 272.134 154.445 268.078 154.445 263.237C154.445 259.967 152.966 256.827 150.255 255.126C147.791 253.556 144.71 253.556 141.876 253.556H137.07V287.311H141.013V273.05H142.615L151.98 287.311H156.786L146.805 272.657ZM141.013 257.35H142.122C146.065 257.35 150.748 258.135 150.748 263.368C150.748 268.732 146.312 269.517 142.369 269.517H141.136V257.35H141.013ZM185.252 270.302V274.097H193.508C193.385 279.592 188.086 284.04 183.157 284.04C176.256 284.04 170.834 277.367 170.834 270.302C170.834 262.714 176.379 256.565 183.526 256.565C187.47 256.565 191.29 258.789 193.508 262.06L196.342 259.182C193.261 254.995 188.332 252.64 183.403 252.64C174.284 252.64 166.891 260.621 166.891 270.302C166.891 279.592 174.038 287.834 182.91 287.834C191.783 287.834 197.944 280.769 197.944 271.48V270.172H185.252V270.302ZM219.632 272.657V287.311H223.575V272.657L233.926 253.687H229.367L221.604 268.078L213.717 253.687H209.158L219.632 272.657ZM261.16 287.311H267.567C277.549 287.311 285.559 281.816 285.559 270.302C285.559 259.051 277.426 253.556 267.691 253.556H261.16V287.311ZM265.103 257.481H266.458C274.591 257.481 281.492 260.621 281.492 270.564C281.492 280.377 274.468 283.517 266.458 283.517H265.103V257.481ZM310.327 272.657C314.887 272.134 317.967 268.078 317.967 263.237C317.967 259.967 316.489 256.827 313.778 255.126C311.313 253.556 308.232 253.556 305.398 253.556H300.592V287.311H304.536V273.05H306.138L315.503 287.311H320.309L310.327 272.657ZM304.536 257.35H305.645C309.588 257.35 314.271 258.135 314.271 263.368C314.271 268.732 309.834 269.517 305.891 269.517H304.659V257.35H304.536ZM332.755 253.687H336.698V287.442H332.755V253.687ZM352.594 287.311H356.538V262.191L380.32 288.75V253.687H376.377V278.545L352.594 251.986V287.311ZM400.283 268.209V253.687H396.34V287.311H400.283V273.312L401.885 271.611L413.838 287.311H419.137L404.596 268.732L418.891 253.687H413.715L400.283 268.209ZM459.802 1.43918C462.02 1.43918 463.869 2.22418 465.347 3.92502C466.826 5.49502 467.689 7.58836 467.689 9.81254C467.689 12.1675 466.949 14.13 465.347 15.7001C463.869 17.4009 461.897 18.1859 459.802 18.1859C457.584 18.1859 455.736 17.4009 454.134 15.7001C452.655 14.13 451.792 12.0367 451.792 9.81254C451.792 7.45753 452.532 5.49502 454.134 3.92502C455.736 2.35501 457.584 1.43918 459.802 1.43918ZM469.044 9.81254C469.044 7.19586 468.182 4.84085 466.333 2.87835C464.485 1.04668 462.39 7.62939e-06 459.802 7.62939e-06C457.214 7.62939e-06 455.119 0.915843 453.271 2.87835C451.423 4.84085 450.56 7.06503 450.56 9.81254C450.56 12.56 451.423 14.7842 453.271 16.7467C455.119 18.7092 457.214 19.6251 459.802 19.6251C462.39 19.6251 464.485 18.7092 466.333 16.7467C468.058 14.9151 469.044 12.56 469.044 9.81254ZM462.267 7.7192C462.267 8.5042 461.897 9.15837 461.158 9.42003C460.788 9.55087 460.172 9.6817 459.432 9.6817H457.83V5.75669H459.309C460.295 5.75669 461.034 5.88752 461.527 6.14919C462.02 6.54169 462.267 6.93419 462.267 7.7192ZM456.105 4.44835V15.1767H457.83V10.99H459.186C460.172 10.99 460.788 11.1209 461.158 11.3825C461.774 11.775 462.143 12.56 462.143 13.8684V15.1767H463.869L463.745 15.0459C463.745 14.9151 463.622 14.7842 463.622 14.5225V12.9525C463.622 12.4292 463.376 11.9059 463.129 11.2517C462.76 10.7284 462.143 10.3359 461.404 10.205C462.02 10.0742 462.513 9.94337 462.883 9.6817C463.499 9.2892 463.869 8.5042 463.869 7.58836C463.869 6.28003 463.376 5.36419 462.267 4.84085C461.651 4.57919 460.788 4.44835 459.432 4.44835H456.105Z" fill="#E21B4D"/>
</g>
<defs>
<clipPath id="clip0_2_7">
<rect width="439" height="242" fill="white" transform="translate(0.5)"/>
</clipPath>
</defs>
</svg>
